<?xml version="1.0" encoding="UTF-8" standalone="no"?>
<!-- Created with Inkscape (http://www.inkscape.org/) -->

<svg width="105.83334mm" height="56.390877mm" viewBox="0 0 105.83334 56.390877" version="1.1" id="svg1" xmlns="http://www.w3.org/2000/svg" xmlns:svg="http://www.w3.org/2000/svg">
  <defs id="defs1" />
  <g id="layer1" transform="matrix(0.46852568,0,0,0.46852568,4.5479245,-38.792251)">
    <path id="path3" d="m 160.62842,197.51122 c -0.27105,-0.27192 -0.64752,-0.4396 -1.06159,-0.4396 -0.39115,0 -0.7456,0.14418 -1.00843,0.38205 l -0.0544,0.0575 c -0.27164,0.27075 -0.43961,0.64723 -0.43961,1.06158 0,0.41905 0.16649,0.79494 0.43402,1.06277 l 0.007,0.004 c 0.26782,0.26782 0.64371,0.43433 1.06275,0.43433 0.41407,0 0.79054,-0.16886 1.0616,-0.43962 l 0.003,0.003 0.003,-0.003 c 0.26783,-0.26782 0.43344,-0.64369 0.43344,-1.06276 0,-0.41436 -0.16854,-0.79084 -0.4396,-1.06158 z M 96.418817,125.20775 c -0.271337,-0.27134 -0.647517,-0.43961 -1.062172,-0.43961 -0.391144,0 -0.744135,0.14478 -1.00726,0.38205 l -0.05493,0.0575 c -0.271337,0.27135 -0.439593,0.64723 -0.439593,1.06246 0,0.41817 0.166194,0.79435 0.43372,1.06187 l 0.0067,0.007 c 0.267827,0.26722 0.643416,0.43403 1.062183,0.43403 0.414644,0 0.790834,-0.16857 1.062171,-0.43991 l 0.0022,0.002 0.0033,-0.002 c 0.267828,-0.26753 0.434022,-0.64371 0.434022,-1.06188 0,-0.41523 -0.168557,-0.79111 -0.439894,-1.06246 z m 6.463483,10.60057 c -0.27191,-0.27133 -0.64752,-0.4399 -1.06246,-0.4399 -0.39086,0 -0.74443,0.14508 -1.00755,0.38235 l -0.0543,0.0575 c -0.27164,0.27135 -0.4402,0.64781 -0.4402,1.06217 0,0.41906 0.16709,0.79466 0.43462,1.06247 l 0.007,0.007 c 0.26783,0.26782 0.64372,0.43403 1.06188,0.43403 0.41495,0 0.79054,-0.16856 1.06246,-0.4396 l 0.003,0.002 0.002,-0.002 c 0.26781,-0.26782 0.43402,-0.64342 0.43402,-1.06248 0,-0.41435 -0.16856,-0.79083 -0.43961,-1.06217 z m 20.83027,12.02779 c -0.27105,-0.27106 -0.64753,-0.43932 -1.06158,-0.43932 -0.39087,0 -0.74444,0.14477 -1.00755,0.38204 l -0.0543,0.0573 c -0.27163,0.27193 -0.43961,0.64751 -0.43961,1.06246 0,0.41845 0.16563,0.79405 0.43315,1.06187 l 0.007,0.007 c 0.26782,0.26783 0.64282,0.43404 1.06188,0.43404 0.41406,0 0.79053,-0.16797 1.06158,-0.43961 l 0.003,0.003 0.003,-0.003 c 0.26752,-0.26782 0.43374,-0.64341 0.43374,-1.06188 0,-0.41494 -0.16828,-0.79053 -0.44021,-1.06247 z m 1.35495,-18.9808 c -0.27105,-0.27133 -0.64781,-0.43961 -1.06187,-0.43961 -0.39146,0 -0.74502,0.14449 -1.00814,0.38206 l -0.0553,0.0575 c -0.27105,0.27134 -0.43962,0.64753 -0.43962,1.06217 0,0.41877 0.1671,0.79434 0.43492,1.06218 l 0.004,0.007 c 0.26782,0.26781 0.6443,0.43432 1.06335,0.43432 0.41406,0 0.79083,-0.16856 1.06188,-0.43989 l 0.002,0.002 0.002,-0.002 c 0.26783,-0.26783 0.43404,-0.64342 0.43404,-1.06219 0,-0.41464 -0.16857,-0.79083 -0.43933,-1.06217 z m 19.50204,9.06826 c -0.27164,-0.27163 -0.64723,-0.43931 -1.06246,-0.43931 -0.39146,0 -0.74444,0.14477 -1.00755,0.38176 l -0.055,0.0575 c -0.27105,0.27106 -0.43959,0.64753 -0.43959,1.06159 0,0.41935 0.16619,0.79493 0.43402,1.06276 l 0.007,0.007 c 0.26781,0.26781 0.6434,0.43402 1.06247,0.43402 0.41523,0 0.79082,-0.16886 1.06246,-0.4396 l 0.002,0.002 0.002,-0.002 c 0.0296,-0.0294 0.0573,-0.06 0.0844,-0.0913 l 5.9e-4,-8.4e-4 0.003,-0.004 0.0363,-0.0449 c 0.19351,-0.25196 0.31011,-0.57117 0.31011,-0.92092 0,-0.41406 -0.16857,-0.79054 -0.43962,-1.06159 z m -2.13051,-26.77807 c -0.27164,-0.27164 -0.64752,-0.43991 -1.06247,-0.43991 -0.39056,0 -0.74354,0.14477 -1.00726,0.38176 l -0.0546,0.0583 c -0.27076,0.27106 -0.43961,0.64724 -0.43961,1.06189 0,0.41875 0.1662,0.79435 0.43344,1.06187 l 0.007,0.007 c 0.26783,0.26782 0.64342,0.43402 1.0619,0.43402 0.41493,0 0.79081,-0.16827 1.06246,-0.43989 l 0.003,0.003 0.002,-0.003 c 0.26781,-0.26753 0.43403,-0.64313 0.43403,-1.06187 0,-0.41466 -0.16769,-0.79084 -0.43961,-1.06188 z m -15.4357,48.65142 c -0.27164,-0.27105 -0.64724,-0.43991 -1.06247,-0.43991 -0.39058,0 -0.74415,0.14537 -1.00726,0.38206 l -0.0553,0.0578 c -0.27105,0.27134 -0.43962,0.64753 -0.43962,1.06158 0,0.41906 0.16622,0.79465 0.43405,1.06247 l 0.004,0.007 c 0.26781,0.26783 0.64428,0.43403 1.06246,0.43403 0.41523,0 0.79083,-0.16767 1.06245,-0.43961 l 0.003,0.003 0.002,-0.003 c 0.26723,-0.26782 0.43403,-0.64341 0.43403,-1.06246 0,-0.41407 -0.16856,-0.79025 -0.43962,-1.06158 z m 48.59297,-44.73868 c -0.27105,-0.27106 -0.64781,-0.4399 -1.06188,-0.4399 -0.39145,0 -0.74443,0.14505 -1.00726,0.38263 l -0.0555,0.0573 c -0.27076,0.27164 -0.43932,0.64753 -0.43932,1.06247 0,0.41847 0.16592,0.79436 0.43402,1.06188 l 0.004,0.007 c 0.26783,0.26782 0.64372,0.43404 1.06276,0.43404 0.41407,0 0.79084,-0.16797 1.06189,-0.43961 l 0.003,0.003 0.003,-0.003 c 0.26783,-0.26753 0.43404,-0.64342 0.43404,-1.06188 0,-0.41495 -0.16886,-0.79084 -0.4402,-1.06248 z m 5.77867,16.8397 c -0.27075,-0.27133 -0.64722,-0.43961 -1.06159,-0.43961 -0.39145,0 -0.74501,0.14507 -1.00842,0.38206 l -0.054,0.0575 c -0.27193,0.27194 -0.43961,0.6481 -0.43961,1.06217 0,0.41904 0.16621,0.79435 0.43403,1.06218 l 0.007,0.007 c 0.26783,0.26722 0.64341,0.43374 1.06247,0.43374 0.41436,0 0.79083,-0.16858 1.06159,-0.43992 l 0.003,0.003 0.002,-0.003 c 0.26783,-0.26782 0.43375,-0.64311 0.43375,-1.06217 0,-0.32125 -0.10129,-0.6199 -0.27223,-0.86395 l -0.003,-0.007 -0.0111,-0.0144 c -0.0456,-0.0634 -0.0966,-0.12305 -0.15211,-0.17824 z m -5.42421,28.51478 c -0.27194,-0.27104 -0.64783,-0.43961 -1.06276,-0.43961 -0.39087,0 -0.74445,0.14478 -1.00726,0.38293 l -0.0546,0.0567 c -0.27164,0.27164 -0.43931,0.64723 -0.43931,1.06246 0,0.41906 0.16562,0.79466 0.43315,1.06276 l 0.007,0.004 c 0.26782,0.26783 0.64312,0.43403 1.06189,0.43403 0.41494,0 0.79083,-0.16856 1.06275,-0.43931 l 0.001,0.001 0.003,-0.001 c 0.26782,-0.26812 0.43402,-0.64371 0.43402,-1.06276 0,-0.41524 -0.16855,-0.79083 -0.43931,-1.06246 z m 17.92741,-11.6786 c -0.27133,-0.27163 -0.64722,-0.43933 -1.06246,-0.43933 -0.39056,0 -0.74413,0.14479 -1.00726,0.38178 l -0.0544,0.0575 c -0.27195,0.27105 -0.4405,0.64753 -0.4405,1.06276 0,0.41818 0.16621,0.79377 0.43402,1.06157 l 0.007,0.007 c 0.26693,0.2678 0.64252,0.43372 1.06159,0.43372 0.41524,0 0.79111,-0.16768 1.06246,-0.43932 l 0.002,0.003 0.003,-0.003 c 0.26783,-0.2678 0.43405,-0.6434 0.43405,-1.06158 0,-0.41524 -0.16857,-0.79171 -0.43962,-1.06275 z m 7.65457,-7.87188 c -0.26693,-0.26782 -0.64282,-0.43403 -1.06158,-0.43403 -0.39086,0 -0.74471,0.14506 -1.00755,0.38293 l -0.0544,0.0575 c -0.27164,0.27076 -0.4405,0.64752 -0.4405,1.06159 0,0.41904 0.16652,0.79493 0.43433,1.06276 l 0.007,0.004 c 0.26781,0.26811 0.64282,0.43403 1.06187,0.43403 0.41877,0 0.79466,-0.16592 1.06159,-0.43403 l 0.007,-0.004 c 0.26782,-0.26783 0.43433,-0.64372 0.43433,-1.06276 0,-0.41407 -0.16856,-0.79083 -0.44049,-1.06159 l 0.003,-0.003 z m -57.28593,-17.57473 c 0.0329,0.0393 0.0629,0.0802 0.0913,0.12181 0.0284,0.034 0.0583,0.0666 0.089,0.0973 l 0.004,0.007 c 0.26811,0.26752 0.64459,0.43344 1.06218,0.43344 0.41582,0 0.79141,-0.16798 1.06334,-0.43961 l 0.002,0.003 0.001,-0.003 c 0.26781,-0.26753 0.43491,-0.64342 0.43491,-1.06188 0,-0.41466 -0.16856,-0.79084 -0.43932,-1.06218 -0.27193,-0.27134 -0.64753,-0.4399 -1.06334,-0.4399 -0.39087,0 -0.74385,0.14477 -1.00667,0.38234 l -0.0555,0.0575 c -0.27077,0.27133 -0.43933,0.6475 -0.43933,1.06215 0,0.31452 0.0941,0.60437 0.25372,0.84282 z m -16.07443,33.56986 c -0.66102,-0.36884 -1.4216,-0.57998 -2.23152,-0.57998 -1.21049,0 -2.3164,0.47574 -3.13865,1.25157 -0.0346,0.0284 -0.0679,0.059 -0.10017,0.0905 -0.8293,0.82959 -1.34205,1.97576 -1.34205,3.23909 0,1.25098 0.50627,2.38892 1.32706,3.2191 l 0.015,0.0144 0.002,0.003 0.002,0.003 c 0.83136,0.82931 1.97546,1.34205 3.2335,1.34205 1.26423,0 2.41038,-0.51363 3.2388,-1.34205 l -0.002,-0.003 c 0.83018,-0.83194 1.34526,-1.97604 1.34526,-3.23643 0,-0.59232 -0.11336,-1.15938 -0.31803,-1.67916 l 5.47031,-5.47032 c 0.30072,-0.301 0.45106,-0.6948 0.45106,-1.0886 v 0 -19.24245 l 7.01029,-7.00998 c 0.68981,0.41758 1.49796,0.6581 2.35839,0.6581 1.2648,0 2.41096,-0.51361 3.23938,-1.34261 l -0.002,-0.002 c 0.83018,-0.83136 1.34438,-1.97634 1.34438,-3.23615 0,-1.26421 -0.51274,-2.41036 -1.34204,-3.23938 -0.82842,-0.829 -1.97457,-1.34172 -3.23937,-1.34172 -1.21076,0 -2.31581,0.47544 -3.13807,1.25069 -0.035,0.0291 -0.0686,0.0594 -0.10106,0.091 -0.82842,0.82901 -1.34204,1.97518 -1.34204,3.23938 0,0.53477 0.0936,1.04983 0.26372,1.52792 l -7.66221,7.66249 c -0.28927,0.27986 -0.46869,0.67132 -0.46869,1.10565 v 19.24243 z m 46.97638,-12.22777 0.06,0.0567 0.0479,0.0506 c 0.26255,0.23639 0.61612,0.38116 1.0058,0.38116 0.41436,0 0.79083,-0.16856 1.06187,-0.43961 l 0.003,0.002 0.002,-0.002 c 0.26782,-0.26752 0.43461,-0.64341 0.43461,-1.06246 0,-0.41495 -0.16856,-0.79084 -0.44019,-1.06247 -0.27105,-0.27105 -0.64752,-0.43961 -1.06188,-0.43961 -0.39145,0 -0.74413,0.14507 -1.00727,0.38293 l -0.0551,0.0567 c -0.27077,0.27163 -0.43934,0.64752 -0.43934,1.06247 0,0.39408 0.14714,0.75 0.38822,1.01371 z m -14.04316,49.62787 c 0.64606,0.22993 1.22427,0.6017 1.7,1.07656 0.82842,0.82841 1.34203,1.97487 1.34203,3.23878 0,1.25981 -0.51449,2.4048 -1.34526,3.23672 l 0.003,0.003 c -0.82872,0.8284 -1.97576,1.34203 -3.2388,1.34203 -1.25893,0 -2.40244,-0.51363 -3.23438,-1.34203 l -0.002,-0.003 -0.002,-0.003 -0.015,-0.0153 c -0.82049,-0.82931 -1.32706,-1.96755 -1.32706,-3.21824 0,-1.26391 0.51272,-2.41038 1.34202,-3.23879 0.0316,-0.0323 0.0646,-0.0623 0.0992,-0.0914 0.45606,-0.42991 0.99903,-0.76732 1.59957,-0.98287 v -92.15382 c 0,-1.91115 -0.25959,-3.673699 -0.79318,-5.330838 -0.5371,-1.667401 -1.35142,-3.25083 -2.45881,-4.792251 l -0.52537,-0.73151 c -1.60926,-1.677095 -3.553,-3.035571 -5.72404,-3.968243 -2.11025,-0.906818 -4.44075,-1.408989 -6.88959,-1.408989 -1.89353,0 -3.7107,0.298369 -5.40718,0.850159 -1.17992,0.383513 -2.30231,0.887435 -3.35214,1.495313 l 9.58892,9.589223 c 0.30071,0.300698 0.45106,0.694795 0.45106,1.088591 h 8.4e-4 v 8.994255 c 0.64517,0.23024 1.22397,0.60201 1.69794,1.07716 0.82989,0.82899 1.3432,1.97487 1.3432,3.23908 0,1.25951 -0.51419,2.40478 -1.34525,3.23615 l 0.001,0.003 c -0.82843,0.82871 -1.97371,1.34203 -3.23851,1.34203 -1.25715,0 -2.40243,-0.51273 -3.2326,-1.34203 l -0.002,-0.003 -0.003,-0.003 -0.014,-0.0144 c -0.82078,-0.82988 -1.32823,-1.96812 -1.32823,-3.21852 0,-1.26422 0.51361,-2.41009 1.34233,-3.23908 0.0323,-0.0321 0.0654,-0.0625 0.0998,-0.091 0.45606,-0.43051 0.99963,-0.76821 1.59986,-0.98376 V 99.53456 L 129.7795,89.476366 c -0.0867,-0.0012 -0.25049,-0.0025 -0.51831,-0.0025 -2.43768,0 -4.75407,0.495409 -6.8517,1.390194 -1.71469,0.73121 -3.29076,1.731416 -4.67303,2.945419 l 7.35827,7.358271 c 0.29924,0.30071 0.45048,0.69481 0.45048,1.0886 v 0 23.34606 c 0.64575,0.23023 1.22397,0.60172 1.6997,1.07656 0.82872,0.829 1.34205,1.97516 1.34205,3.23938 0,1.25981 -0.51421,2.40449 -1.34528,3.23585 l 0.003,0.003 c -0.8293,0.82872 -1.97545,1.34202 -3.23879,1.34202 -1.25863,0 -2.40245,-0.51302 -3.23409,-1.34202 l -0.003,-0.003 -0.002,-0.002 -0.014,-0.0144 c -0.82077,-0.82988 -1.32792,-1.96811 -1.32792,-3.21883 0,-1.2642 0.51272,-2.41035 1.34202,-3.23936 0.0323,-0.0316 0.0654,-0.0619 0.0998,-0.0908 0.45547,-0.43021 0.99905,-0.76822 1.59928,-0.98376 v -22.71103 l -7.70978,-7.710374 c -0.52917,-0.115105 -1.0789,-0.207612 -1.64773,-0.27575 -0.68363,-0.08223 -1.38784,-0.1251 -2.10614,-0.1251 -4.48096,0 -8.56404,1.680929 -11.651292,4.443684 -2.889627,2.58687 -4.91266,6.12283 -5.580745,10.11751 l 18.547357,10.70863 c 0.49158,0.28487 0.76586,0.79935 0.76586,1.32913 h 0.004 v 17.02529 l 6.82497,6.82557 c 0.76646,-0.57411 1.71499,-0.91418 2.73898,-0.91418 1.26391,0 2.41009,0.51333 3.23879,1.34204 0.82842,0.8293 1.34203,1.97457 1.34203,3.23937 0,1.25952 -0.51361,2.4051 -1.34438,3.23586 l 0.002,0.003 c -0.8287,0.82901 -1.97487,1.34232 -3.23879,1.34232 -1.25803,0 -2.40243,-0.51272 -3.23348,-1.34232 l -0.002,-0.003 -0.003,-0.002 -0.0142,-0.015 c -0.82079,-0.83018 -1.32794,-1.96843 -1.32794,-3.21853 0,-0.3568 0.0411,-0.7039 0.11809,-1.03809 l -7.71271,-7.71272 c -0.28808,-0.27955 -0.46781,-0.67102 -0.46781,-1.10476 V 122.26631 L 91.569281,111.62079 c -0.382932,-0.0681 -0.758822,-0.12094 -1.124148,-0.15593 -0.421396,-0.0404 -0.88391,-0.0617 -1.386659,-0.0617 -3.955024,0 -7.535637,1.60309 -10.126609,4.19378 -2.590972,2.59127 -4.193803,6.17216 -4.193803,10.12632 0,2.68905 0.735973,5.20045 2.015718,7.34005 1.134707,1.89706 2.697573,3.5116 4.555566,4.70886 l 9.79682,-9.79682 c -0.212894,-0.528 -0.330361,-1.103 -0.330361,-1.70383 0,-1.2645 0.513614,-2.41066 1.342613,-3.23908 0.03164,-0.0326 0.06496,-0.0628 0.09962,-0.0916 0.822546,-0.77526 1.928186,-1.25071 3.139235,-1.25071 1.264223,0 2.410389,0.51332 3.239387,1.34234 0.829008,0.82842 1.342028,1.97457 1.342028,3.23907 0,1.25951 -0.51449,2.4045 -1.345259,3.23586 l 0.0033,0.003 c -0.828998,0.82871 -1.975152,1.34232 -3.239375,1.34232 -0.797877,0 -1.550235,-0.20673 -2.205395,-0.5691 l -10.376238,10.37585 c -0.470736,0.83339 -0.845741,1.73964 -1.107394,2.70226 -0.268698,0.98934 -0.412592,2.03242 -0.412592,3.10986 0,3.26464 1.323523,6.22063 3.462265,8.35908 2.13903,2.13961 5.094722,3.46254 8.359659,3.46254 0.435481,0 0.840163,-0.0196 1.21369,-0.0575 v 8.2e-4 l 0.0067,-8.2e-4 c 0.25079,-0.0259 0.499808,-0.059 0.745305,-0.0998 l 5.238056,-5.23803 v -11.71239 c -0.641652,-0.23052 -1.218409,-0.60083 -1.693559,-1.07509 l -0.0022,-0.002 -0.0022,-0.003 -0.0146,-0.015 c -0.820474,-0.82929 -1.327625,-1.96752 -1.327625,-3.21823 0,-1.26421 0.513024,-2.41036 1.342323,-3.23878 0.03164,-0.0323 0.06518,-0.0626 0.09984,-0.0914 0.822249,-0.77557 1.928171,-1.25071 3.138931,-1.25071 1.26423,0 2.41008,0.51303 3.23968,1.34203 0.82842,0.82842 1.34202,1.97458 1.34202,3.23879 0,1.25951 -0.51418,2.40481 -1.34525,3.23644 l 0.003,0.002 c -0.47574,0.47514 -1.05395,0.84661 -1.70001,1.07744 v 12.34727 0 c 0,0.39469 -0.15035,0.7876 -0.45106,1.0886 l -5.532579,5.53171 c 0.233452,2.36278 1.313251,4.48097 2.930749,6.04676 1.75198,1.69531 4.14384,2.7378 6.78327,2.7378 h 34.11108 c 2.69434,0 5.13467,-1.09212 6.89987,-2.8582 1.7649,-1.76431 2.8582,-4.20434 2.8582,-6.89985 v -10.72855 l -5.20926,-5.47119 c -0.66336,0.37265 -1.42896,0.58526 -2.24268,0.58526 -1.25775,0 -2.40244,-0.51272 -3.23323,-1.34115 l -0.003,-0.003 -0.003,-0.003 -0.014,-0.015 c -0.82078,-0.8293 -1.32793,-1.96752 -1.32793,-3.21853 0,-1.26391 0.51361,-2.41008 1.34202,-3.23849 0.0323,-0.032 0.0661,-0.0622 0.10007,-0.0914 0.82224,-0.77556 1.92818,-1.251 3.13953,-1.251 1.2642,0 2.40948,0.51303 3.23878,1.34232 0.8296,0.82842 1.34233,1.97459 1.34233,3.2385 0,0.58761 -0.11274,1.14999 -0.31599,1.66771 l 5.83887,6.13017 c 0.2828,0.29777 0.42317,0.67836 0.42317,1.05894 h 0.003 v 11.33884 c 0,3.5445 -1.43748,6.75479 -3.76003,9.07679 -2.32287,2.32285 -5.53347,3.76032 -9.07707,3.76032 h -34.11098 c -3.46315,0 -6.60973,-1.37757 -8.92349,-3.61527 -1.926704,-1.86415 -3.271378,-4.32973 -3.731551,-7.09602 -0.467204,0.0426 -0.920915,0.0655 -1.357878,0.0655 -4.114504,0 -7.840178,-1.6683 -10.536271,-4.36499 -2.696694,-2.69638 -4.364689,-6.42206 -4.364689,-10.53655 0,-1.35348 0.181189,-2.66615 0.520661,-3.91568 0.213493,-0.78348 0.491589,-1.54524 0.829006,-2.27851 -2.199522,-1.44394 -4.052875,-3.37446 -5.406947,-5.63801 -1.562366,-2.6127 -2.460879,-5.66355 -2.460879,-8.91643 0,-4.80401 1.948147,-9.1543 5.09684,-12.30323 3.148634,-3.14804 7.49893,-5.09647 12.303234,-5.09647 0.530919,0 1.090352,0.0291 1.675614,0.0855 l 0.08045,0.009 c 0.856031,-4.52443 3.194459,-8.524391 6.491387,-11.476283 3.639343,-3.256402 8.439243,-5.237739 13.696063,-5.237739 0.82842,0 1.65243,0.05081 2.46705,0.14889 0.52536,0.06307 1.05219,0.148588 1.58078,0.255191 1.77605,-1.701776 3.8587,-3.088732 6.15719,-4.069557 2.4785,-1.057772 5.20221,-1.643039 8.05425,-1.643039 0.0884,0 0.31832,0.0062 0.63988,0.01589 l 0.007,2.85e-4 v -2.85e-4 l 0.0945,0.0037 c 1.61454,-1.1118 3.38913,-1.998366 5.27737,-2.6127 2.00689,-0.653399 4.14533,-1.006379 6.35689,-1.006379 2.87407,0 5.6145,0.59232 8.10446,1.662124 2.23594,0.960559 4.26896,2.309637 6.01419,3.962374 0.8287,-0.348871 1.68707,-0.630204 2.56865,-0.838116 1.22162,-0.288373 2.49082,-0.441079 3.7894,-0.441079 2.79447,0 5.43479,0.70303 7.75206,1.941098 2.12141,1.133824 3.96502,2.716953 5.40248,4.621928 l 0.12598,-0.0089 c 0.38293,-0.02373 0.7374,-0.03644 1.05953,-0.03644 3.61703,0 6.96742,1.173477 9.69287,3.160964 2.59216,1.890602 4.61167,4.518863 5.74842,7.572653 2.96627,1.18316 5.50704,3.20032 7.32832,5.75987 1.91937,2.6961 3.04878,5.99038 3.04878,9.54252 0,0.61081 -0.0361,1.22955 -0.10541,1.85153 l -0.0167,0.14184 c 3.64932,0.59525 6.89546,2.38628 9.32139,4.95876 2.78273,2.9504 4.48889,6.92688 4.48889,11.29803 0,0.73092 -0.0529,1.47299 -0.15299,2.2189 -0.0796,0.58673 -0.1897,1.16496 -0.33008,1.73112 0.20704,0.69011 0.3712,1.39577 0.48631,2.11349 0.14067,0.87482 0.21409,1.75315 0.21409,2.62651 0,4.2064 -1.58401,8.04982 -4.18966,10.96677 -2.344,2.62444 -5.51584,4.49506 -9.10527,5.19751 -0.28749,4.08188 -2.0621,7.75471 -4.7849,10.47753 -2.98154,2.98124 -7.10161,4.82602 -11.65014,4.82602 h -5.64945 c -4.54852,0 -8.66858,-1.84478 -11.65071,-4.82602 -2.98066,-2.98124 -4.82514,-7.10161 -4.82514,-11.65012 v -7.59086 c 0,-0.43373 0.17943,-0.82517 0.46779,-1.10563 l 7.34095,-7.34006 c -0.28749,-0.59789 -0.44872,-1.26773 -0.44872,-1.97251 0,-1.26421 0.51362,-2.41009 1.34203,-3.2388 0.0329,-0.0323 0.0661,-0.0622 0.10007,-0.0913 0.82284,-0.77583 1.92789,-1.2507 3.13924,-1.2507 1.2645,0 2.41038,0.51273 3.23879,1.34203 0.82901,0.82872 1.34233,1.9746 1.34233,3.2388 0,1.25952 -0.5142,2.40449 -1.34526,3.23555 l 0.003,0.003 c -0.82842,0.82932 -1.97427,1.34235 -3.23878,1.34235 -0.69599,0 -1.35701,-0.15683 -1.95021,-0.43728 l -6.9125,6.91162 v 6.95359 c 0,3.69954 1.50061,7.04935 3.92363,9.47292 2.42445,2.42387 5.77425,3.92419 9.47349,3.92419 h 5.64946 c 3.69924,0 7.04933,-1.50032 9.47321,-3.92419 2.11699,-2.11641 3.52922,-4.93821 3.85312,-8.08272 h -20.57037 c -0.23169,0.64253 -0.60259,1.22074 -1.07773,1.69589 l 0.002,0.003 c -0.829,0.8293 -1.97486,1.34202 -3.23907,1.34202 -1.25775,0 -2.40216,-0.51272 -3.2332,-1.34202 l -0.002,-0.003 -0.003,-0.002 -0.0144,-0.015 c -0.8205,-0.8293 -1.32765,-1.96752 -1.32765,-3.21823 0,-1.26392 0.51361,-2.41036 1.34204,-3.23879 0.0316,-0.0323 0.0646,-0.0622 0.0992,-0.0914 0.82225,-0.77583 1.92818,-1.25069 3.13953,-1.25069 1.2642,0 2.41008,0.51273 3.23908,1.34202 0.47486,0.47487 0.84633,1.05395 1.07746,1.69884 h 22.10943 c 3.3222,-0.39673 6.27114,-2.0107 8.38756,-4.37995 2.11172,-2.36398 3.39502,-5.49 3.39502,-8.92201 0,-0.75119 -0.0562,-1.46803 -0.16563,-2.1452 -0.055,-0.34505 -0.12367,-0.68363 -0.2041,-1.01783 h -7.94177 c -0.23083,0.64194 -0.60112,1.21929 -1.07509,1.69324 l -0.002,0.003 -0.003,0.002 -0.015,0.0153 c -0.8296,0.82079 -1.96753,1.32764 -3.21824,1.32764 -1.25804,0 -2.40243,-0.51273 -3.2335,-1.34291 l -0.003,-0.002 -0.002,-0.003 -0.014,-0.0146 c -0.82078,-0.8296 -1.32792,-1.96784 -1.32792,-3.21853 0,-1.26392 0.51272,-2.41008 1.34202,-3.2388 0.0327,-0.0323 0.0655,-0.0623 0.0992,-0.0914 0.82313,-0.77496 1.92846,-1.25069 3.13982,-1.25069 1.25952,0 2.4045,0.51419 3.23644,1.34526 l 0.002,-0.003 c 0.47573,0.47514 0.84662,1.05395 1.07744,1.69971 h 7.87335 c 0.0385,-0.21085 0.0731,-0.42376 0.10151,-0.63783 0.0772,-0.5703 0.11722,-1.17436 0.11722,-1.81014 0,-3.56092 -1.38666,-6.7962 -3.64726,-9.19364 -2.12993,-2.25796 -5.03482,-3.77708 -8.28859,-4.1283 l -6.588,6.5883 v 14.27075 c 0.64518,0.22994 1.22399,0.60171 1.69913,1.07686 0.8293,0.82929 1.34203,1.97516 1.34203,3.23966 0,1.25922 -0.51361,2.40451 -1.34438,3.23528 l 0.002,0.003 c -0.82872,0.82871 -1.97487,1.34232 -3.23909,1.34232 -1.25775,0 -2.40215,-0.51274 -3.23321,-1.34232 l -0.003,-0.003 -0.002,-0.001 -0.014,-0.0151 c -0.82079,-0.83017 -1.32795,-1.96841 -1.32795,-3.21824 0,-1.2645 0.51275,-2.41035 1.34205,-3.23965 0.0323,-0.0316 0.0655,-0.0622 0.10006,-0.0916 0.45577,-0.42992 0.99875,-0.76793 1.59899,-0.98289 v -14.91427 h 6e-4 c 0,-0.39379 0.15064,-0.7879 0.45046,-1.08861 l 7.2229,-7.22229 c 0.0655,-0.34124 0.11895,-0.69276 0.16005,-1.05336 0.0534,-0.4822 0.0819,-0.98817 0.0819,-1.515 0,-2.89755 -0.91621,-5.57721 -2.47175,-7.76263 -1.17668,-1.65186 -2.71577,-3.02589 -4.50152,-4.00349 v 15.36317 c 0,0.43432 -0.17942,0.82577 -0.46868,1.10592 l -7.09661,7.09633 c 0.15651,0.46076 0.24108,0.95469 0.24108,1.46771 0,1.25981 -0.51418,2.40481 -1.34526,3.23615 l 0.003,0.003 c -0.8293,0.82871 -1.97518,1.34232 -3.2388,1.34232 -1.25775,0 -2.40244,-0.51272 -3.2335,-1.34232 l -0.003,-0.003 -0.003,-0.002 -0.014,-0.0146 c -0.82079,-0.8302 -1.32822,-1.96783 -1.32822,-3.21883 0,-1.26421 0.5136,-2.40978 1.34232,-3.23878 0.0323,-0.0323 0.0652,-0.0626 0.10006,-0.0914 0.82225,-0.77557 1.92818,-1.25071 3.13954,-1.25071 0.88539,0 1.71145,0.25197 2.4127,0.68717 l 6.41298,-6.41356 v -16.84528 c -0.89889,-2.63649 -2.59449,-4.90386 -4.79753,-6.511353 -2.20805,-1.609559 -4.9338,-2.559835 -7.88921,-2.559835 -0.13245,0 -0.25813,0.0011 -0.37882,0.0033 v 15.064078 c 0.64604,0.23053 1.22455,0.60199 1.69971,1.07685 0.82871,0.829 1.34232,1.97488 1.34232,3.23938 0,1.25921 -0.51449,2.4045 -1.34467,3.23585 l 0.002,0.002 c -0.82872,0.8293 -1.97458,1.34232 -3.2388,1.34232 -1.25804,0 -2.40214,-0.51273 -3.2332,-1.34232 l -0.003,-0.002 -0.003,-0.002 -0.014,-0.015 c -0.82078,-0.82988 -1.32793,-1.9681 -1.32793,-3.21822 0,-1.26451 0.51361,-2.41037 1.34204,-3.23938 0.0323,-0.0319 0.0663,-0.0622 0.10006,-0.091 0.45605,-0.42991 0.99933,-0.76791 1.59957,-0.98376 V 95.791142 c -1.1955,-1.660069 -2.7613,-3.035886 -4.57319,-4.004659 -1.87296,-1.000229 -4.02021,-1.568153 -6.30901,-1.568153 -1.06952,0 -2.10439,0.123674 -3.09167,0.3562 -0.42434,0.100062 -0.83957,0.219958 -1.24511,0.357683 1.0422,1.576086 1.83272,3.199451 2.381,4.903567 0.63811,1.982797 0.94912,4.055749 0.94912,6.26937 v 92.15203 0" style="fill:#fbc907;fill-opacity:1;fill-rule:evenodd;stroke:none;stroke-width:0.0293662" />
    <path d="m -9.7068842,197.85257 q 0,2.22552 2.166957,2.22552 2.2255235,0 2.2255235,-2.22552 v -12.38679 h 5.12456054 q 2.22552346,0 2.22552346,2.2548 v 10.16127 q 0,2.22553 2.1962402,2.22553 2.1962403,0 2.1962403,-2.19624 v -10.10271 q 0,-6.73513 -6.58872075,-6.73513 l -7.35008405,0.0146 q -2.1962402,0 -2.1962402,2.16695 z m 35.1984112,0.0879 q 0,-2.21088 -2.152316,-2.21088 l -7.350084,-0.0146 q -2.240165,0 -2.240165,-2.24017 v -0.73208 l 6.618004,-0.0146 q 2.19624,0 2.181599,-2.13767 0,-2.24017 -2.225524,-2.26945 l -6.574079,0.0293 V 185.422 l 9.487758,0.0146 q 2.225523,-0.0439 2.240165,-2.1816 0,-2.19624 -2.298731,-2.18159 H 11.552722 q -2.1962403,0 -2.1962403,2.19624 v 10.1027 q 0,6.73514 6.5887203,6.73514 h 7.350084 q 2.196241,0 2.196241,-2.16696 z m 2.928321,-10.2784 v 5.82735 q 0,6.58872 6.544796,6.58872 h 3.001528 q 6.588721,0 6.588721,-6.73513 v -5.69559 q 0,-6.60336 -6.618004,-6.60336 H 35.02321 q -6.603362,0 -6.603362,6.61801 z m 9.517041,-2.19624 q 2.225523,0 2.225523,2.12303 v 5.842 q 0,2.2548 -2.225523,2.2548 h -2.957604 q -2.166957,0 -2.166957,-2.2548 v -5.78344 q 0,-2.18159 2.166957,-2.18159 z m 25.68137,12.47464 q 0,-2.21088 -2.152316,-2.21088 l -7.350084,-0.0146 q -2.240165,0 -2.240165,-2.24017 v -5.73951 q 0,-2.31337 2.137674,-2.29873 h 7.350084 q 2.225523,-0.0439 2.240165,-2.1816 0,-2.19624 -2.298731,-2.18159 h -7.232952 q -6.58872,0 -6.58872,6.64728 v 5.65166 q 0,6.73514 6.58872,6.73514 h 7.350084 q 2.196241,0 2.196241,-2.16696 z m 2.928321,-10.2784 v 5.82735 q 0,6.58872 6.544795,6.58872 h 3.001529 q 6.588721,0 6.588721,-6.73513 v -5.69559 q 0,-6.60336 -6.618004,-6.60336 h -2.913679 q -6.603362,0 -6.603362,6.61801 z m 9.517041,-2.19624 q 2.225523,0 2.225523,2.12303 v 5.842 q 0,2.2548 -2.225523,2.2548 h -2.957604 q -2.166957,0 -2.166957,-2.2548 v -5.78344 q 0,-2.18159 2.166957,-2.18159 z m 24.187929,1.43487 v -3.64576 q 0,-2.16695 -2.196239,-2.16695 l -5.856641,-0.0146 q -6.588721,0 -6.588721,6.73513 v 10.10271 q 0,2.19624 2.196241,2.19624 2.19624,0 2.19624,-2.22553 v -10.16127 q 0,-2.2548 2.240165,-2.2548 h 3.616475 v 1.43487 q 0,2.22553 2.240165,2.22553 2.152315,0 2.152315,-2.22553 z m 13.23601,11.03977 q 0,-2.21088 -2.16696,-2.21088 l -1.49344,-0.0146 q -2.24017,0 -2.24017,-2.24017 v -8.05288 l 3.64576,0.0146 q 2.22553,-0.0439 2.22553,-2.1816 0,-2.19624 -2.29874,-2.18159 l -3.57255,-0.0146 v -2.18159 q 0.0147,-2.21089 -2.19624,-2.19624 -2.19624,0 -2.19624,2.19624 v 14.49518 q 0,6.73514 6.58872,6.73514 h 1.50809 q 2.19624,0 2.19624,-2.16696 z m 19.00479,0 q 0,-2.21088 -2.15231,-2.21088 l -7.35008,-0.0146 q -2.24017,0 -2.24017,-2.24017 v -0.73208 l 6.618,-0.0146 q 2.19624,0 2.1816,-2.13767 0,-2.24017 -2.22552,-2.26945 l -6.57408,0.0293 V 185.422 l 9.48776,0.0146 q 2.22552,-0.0439 2.24016,-2.1816 0,-2.19624 -2.29873,-2.18159 h -11.62543 q -2.19624,0 -2.19624,2.19624 v 10.1027 q 0,6.73514 6.58872,6.73514 h 7.35008 q 2.19624,0 2.19624,-2.16696 z m 18.24344,-13.13352 q 1.47881,-1.68378 -0.14641,-3.11866 -1.6545,-1.46416 -3.14795,0.21963 l -11.27403,14.33412 q -1.46416,1.66915 0.14642,3.17723 1.66914,1.43488 3.10402,-0.20498 z m -14.55375,0 11.30332,14.40734 q 1.44952,1.63986 3.11866,0.20498 1.61058,-1.50808 0.14642,-3.17723 L 139.4764,181.90787 q -1.49344,-1.68379 -3.16258,-0.21963 -1.61058,1.43488 -0.13178,3.11866 z" id="text1" style="font-size:29.986px;line-height:1.25;font-family:'Airstrip Four';-inkscape-font-specification:'Airstrip Four';letter-spacing:0px;word-spacing:0px;fill:#fbc907;stroke-width:1.07092" aria-label="NeoCortex" />
  </g>
</svg>
