<?xml version="1.0" encoding="UTF-8" standalone="no"?>
<!-- Created with Inkscape (http://www.inkscape.org/) -->

<svg width="105.83334mm" height="56.390877mm" viewBox="0 0 105.83334 56.390877" version="1.1" id="svg1" xmlns="http://www.w3.org/2000/svg" xmlns:svg="http://www.w3.org/2000/svg">
  <defs id="defs1" />
  <path id="path3" d="m 79.806464,53.746828 c -0.126994,-0.127402 -0.30338,-0.205964 -0.497382,-0.205964 -0.183264,0 -0.349333,0.06755 -0.472475,0.179 l -0.02549,0.02694 c -0.12727,0.126854 -0.205969,0.303244 -0.205969,0.497378 0,0.196335 0.07801,0.37245 0.20335,0.497935 l 0.0033,0.0019 c 0.12548,0.12548 0.301594,0.203495 0.497925,0.203495 0.194003,0 0.370388,-0.07912 0.497387,-0.205974 l 0.0014,0.0014 0.0014,-0.0014 c 0.125485,-0.12548 0.203078,-0.301585 0.203078,-0.49793 0,-0.194138 -0.07896,-0.370529 -0.205964,-0.497377 z M 49.722616,19.870795 c -0.127128,-0.12713 -0.303378,-0.205968 -0.497655,-0.205968 -0.183261,0 -0.348646,0.06783 -0.471927,0.179 l -0.02574,0.02694 c -0.127128,0.127135 -0.20596,0.303244 -0.20596,0.49779 0,0.195923 0.07787,0.372173 0.203208,0.497513 l 0.0031,0.0033 c 0.125483,0.125199 0.301457,0.203354 0.49766,0.203354 0.194271,0 0.370526,-0.07898 0.497654,-0.206109 l 10e-4,9.37e-4 0.0015,-9.37e-4 c 0.125484,-0.125345 0.20335,-0.301595 0.20335,-0.497518 0,-0.194546 -0.07897,-0.370655 -0.206101,-0.49779 z m 3.028308,4.966639 c -0.127397,-0.127125 -0.30338,-0.206104 -0.49779,-0.206104 -0.183128,0 -0.348784,0.06797 -0.472063,0.179141 l -0.02544,0.02694 c -0.12727,0.127134 -0.206245,0.303516 -0.206245,0.497654 0,0.19634 0.07829,0.372319 0.203631,0.497794 l 0.0033,0.0033 c 0.125485,0.125481 0.301599,0.203354 0.497518,0.203354 0.194414,0 0.370388,-0.07897 0.497789,-0.205964 l 0.0014,9.37e-4 9.37e-4,-9.37e-4 c 0.125476,-0.12548 0.20335,-0.301458 0.20335,-0.497799 0,-0.194133 -0.07897,-0.370524 -0.205969,-0.497654 z m 9.759516,5.635329 c -0.126993,-0.126999 -0.303384,-0.205833 -0.497377,-0.205833 -0.183133,0 -0.348789,0.06783 -0.472063,0.178996 l -0.02544,0.02685 c -0.127266,0.127407 -0.205969,0.303375 -0.205969,0.49779 0,0.196055 0.0776,0.372033 0.202942,0.497513 l 0.0033,0.0033 c 0.125481,0.125485 0.301178,0.203359 0.497518,0.203359 0.193998,0 0.370384,-0.0787 0.497378,-0.205969 l 0.0014,0.0014 0.0014,-0.0014 c 0.12534,-0.12548 0.203218,-0.301454 0.203218,-0.497518 0,-0.19441 -0.07884,-0.370383 -0.20625,-0.497794 z m 0.634829,-8.892992 c -0.126994,-0.127125 -0.303515,-0.205969 -0.497513,-0.205969 -0.183409,0 -0.349061,0.0677 -0.472339,0.179005 l -0.02591,0.02694 c -0.126994,0.12713 -0.205973,0.303385 -0.205973,0.497654 0,0.196205 0.07829,0.372169 0.203771,0.497659 l 0.0019,0.0033 c 0.125481,0.125475 0.301871,0.20349 0.498207,0.20349 0.193998,0 0.370524,-0.07897 0.497518,-0.2061 l 9.37e-4,9.37e-4 9.37e-4,-9.37e-4 c 0.125485,-0.125485 0.203359,-0.301459 0.203359,-0.497663 0,-0.19427 -0.07898,-0.370525 -0.205837,-0.497654 z m 9.137207,4.248712 c -0.12727,-0.127265 -0.303244,-0.205828 -0.49779,-0.205828 -0.183409,0 -0.348789,0.06783 -0.472063,0.178865 l -0.02577,0.02694 c -0.126994,0.126999 -0.205959,0.303384 -0.205959,0.497382 0,0.196476 0.07786,0.372445 0.203349,0.497931 l 0.0033,0.0033 c 0.125476,0.125476 0.30145,0.20335 0.497795,0.20335 0.194546,0 0.370519,-0.07912 0.497789,-0.205964 l 9.37e-4,9.37e-4 9.38e-4,-9.37e-4 c 0.01387,-0.01377 0.02685,-0.02811 0.03954,-0.04278 l 2.77e-4,-3.93e-4 0.0014,-0.0019 0.01701,-0.02104 c 0.09066,-0.11805 0.145294,-0.267608 0.145294,-0.431475 0,-0.193997 -0.07898,-0.370388 -0.205973,-0.497382 z M 71.284277,13.28227 c -0.12727,-0.12727 -0.303379,-0.206109 -0.497794,-0.206109 -0.182988,0 -0.348368,0.06783 -0.471927,0.178864 l -0.02558,0.02731 c -0.126858,0.126999 -0.205968,0.303249 -0.205968,0.497523 0,0.196195 0.07787,0.372173 0.203077,0.497513 l 0.0033,0.0033 c 0.125485,0.125481 0.301459,0.20335 0.497527,0.20335 0.194406,0 0.370515,-0.07884 0.49779,-0.2061 l 0.0014,0.0014 9.37e-4,-0.0014 c 0.125476,-0.125345 0.203354,-0.301323 0.203354,-0.497514 0,-0.194278 -0.07857,-0.370528 -0.205969,-0.497518 z m -7.232022,22.79444 c -0.12727,-0.126994 -0.303248,-0.20611 -0.497794,-0.20611 -0.182997,0 -0.348653,0.06811 -0.471927,0.179005 l -0.02591,0.02708 c -0.126994,0.12713 -0.205973,0.303385 -0.205973,0.497378 0,0.19634 0.07788,0.372314 0.203364,0.497794 l 0.0019,0.0033 c 0.125476,0.125485 0.301861,0.203354 0.49779,0.203354 0.194545,0 0.370524,-0.07856 0.497785,-0.205969 l 0.0014,0.0014 9.37e-4,-0.0014 c 0.125204,-0.12548 0.203354,-0.301454 0.203354,-0.497789 0,-0.194003 -0.07897,-0.370253 -0.205973,-0.497378 z M 86.81931,15.115489 c -0.126994,-0.126998 -0.303516,-0.206104 -0.497518,-0.206104 -0.183405,0 -0.348785,0.06796 -0.471927,0.179272 l -0.026,0.02685 c -0.126858,0.127271 -0.205832,0.303385 -0.205832,0.497795 0,0.196064 0.07774,0.372178 0.203349,0.497518 l 0.0019,0.0033 c 0.125485,0.125481 0.3016,0.203359 0.497931,0.203359 0.194002,0 0.370528,-0.0787 0.497522,-0.205968 l 0.0014,0.0014 0.0014,-0.0014 c 0.125486,-0.125345 0.203359,-0.301459 0.203359,-0.497518 0,-0.194415 -0.07911,-0.370529 -0.206245,-0.4978 z m 2.707455,7.889832 c -0.126853,-0.127125 -0.303239,-0.205969 -0.497382,-0.205969 -0.183405,0 -0.349056,0.06797 -0.472471,0.179005 l -0.0253,0.02694 c -0.127406,0.12741 -0.205969,0.303651 -0.205969,0.497654 0,0.196331 0.07787,0.372173 0.203354,0.497658 l 0.0033,0.0033 c 0.125485,0.125199 0.301454,0.203218 0.497795,0.203218 0.194138,0 0.370524,-0.07898 0.497382,-0.206114 l 0.0014,0.0014 9.37e-4,-0.0014 c 0.125486,-0.12548 0.203223,-0.301313 0.203223,-0.497654 0,-0.150513 -0.04746,-0.290439 -0.127546,-0.404782 l -0.0014,-0.0033 -0.0052,-0.0067 c -0.02136,-0.0297 -0.04526,-0.05765 -0.07127,-0.08351 z m -2.541382,13.359907 c -0.127411,-0.126989 -0.303525,-0.205969 -0.49793,-0.205969 -0.183133,0 -0.348794,0.06783 -0.471927,0.179413 l -0.02558,0.02656 c -0.12727,0.12727 -0.205828,0.303244 -0.205828,0.49779 0,0.19634 0.0776,0.372319 0.202942,0.49793 l 0.0033,0.0019 c 0.12548,0.125486 0.301318,0.203355 0.497523,0.203355 0.19441,0 0.370524,-0.07897 0.497925,-0.205828 l 4.69e-4,4.68e-4 0.0014,-4.68e-4 c 0.125481,-0.125622 0.20335,-0.301595 0.20335,-0.497931 0,-0.19455 -0.07897,-0.370524 -0.205828,-0.49779 z m 8.399452,-5.471724 c -0.127125,-0.127266 -0.303239,-0.205838 -0.497789,-0.205838 -0.182988,0 -0.348645,0.06784 -0.471928,0.178874 l -0.02549,0.02694 c -0.127416,0.126994 -0.206386,0.303385 -0.206386,0.497931 0,0.195928 0.07787,0.371901 0.203349,0.497372 l 0.0033,0.0033 c 0.125064,0.125471 0.301037,0.203209 0.497382,0.203209 0.194551,0 0.370656,-0.07856 0.49779,-0.205833 l 9.37e-4,0.0014 0.0014,-0.0014 c 0.125485,-0.125471 0.203363,-0.301449 0.203363,-0.497377 0,-0.194551 -0.07898,-0.370937 -0.205973,-0.497926 z m 3.586363,-3.688178 c -0.125064,-0.125481 -0.301178,-0.203354 -0.497378,-0.203354 -0.183128,0 -0.348915,0.06796 -0.472063,0.179412 l -0.02549,0.02694 c -0.127271,0.126858 -0.206386,0.30338 -0.206386,0.497383 0,0.196331 0.07802,0.372445 0.203495,0.49793 l 0.0033,0.0019 c 0.125476,0.125616 0.301178,0.203354 0.497514,0.203354 0.196204,0 0.372318,-0.07774 0.497382,-0.203354 l 0.0033,-0.0019 c 0.12548,-0.125485 0.203494,-0.301599 0.203494,-0.49793 0,-0.194003 -0.07897,-0.370525 -0.20638,-0.497383 l 0.0014,-0.0014 z M 72.131269,18.971113 c 0.01541,0.01841 0.02947,0.03758 0.04278,0.05707 0.01331,0.01593 0.02731,0.0312 0.0417,0.04559 l 0.0019,0.0033 c 0.125616,0.12534 0.302007,0.203078 0.497659,0.203078 0.194822,0 0.370795,-0.0787 0.498202,-0.205969 l 9.37e-4,0.0014 4.68e-4,-0.0014 c 0.125476,-0.125345 0.203767,-0.301459 0.203767,-0.497518 0,-0.194279 -0.07897,-0.370529 -0.205833,-0.497659 -0.127406,-0.127129 -0.303384,-0.206104 -0.498202,-0.206104 -0.183133,0 -0.348513,0.06783 -0.471651,0.179136 l -0.026,0.02694 c -0.126863,0.127125 -0.205837,0.303371 -0.205837,0.497645 0,0.14736 0.04409,0.283163 0.118874,0.394883 z m -7.531284,15.728342 c -0.309704,-0.172811 -0.666056,-0.271736 -1.045524,-0.271736 -0.567146,0 -1.085293,0.222897 -1.470538,0.586393 -0.01621,0.01331 -0.03181,0.02764 -0.04693,0.0424 -0.388549,0.388684 -0.628785,0.925694 -0.628785,1.517597 0,0.586116 0.2372,1.11927 0.621761,1.508231 l 0.007,0.0067 9.37e-4,0.0014 9.37e-4,0.0014 c 0.389514,0.388553 0.925554,0.628785 1.514978,0.628785 0.592324,0 1.129325,-0.240648 1.517461,-0.628785 l -9.37e-4,-0.0014 c 0.388961,-0.389785 0.630289,-0.925826 0.630289,-1.516351 0,-0.277517 -0.05311,-0.543199 -0.149005,-0.786729 l 2.56298,-2.562986 c 0.140895,-0.141026 0.211334,-0.325531 0.211334,-0.510037 v 0 -9.015582 L 71.610444,20.4144 c 0.323193,0.195647 0.701832,0.308336 1.104966,0.308336 0.592591,0 1.129596,-0.240639 1.517733,-0.629047 l -9.38e-4,-9.37e-4 c 0.388961,-0.389513 0.629877,-0.925966 0.629877,-1.516219 0,-0.592315 -0.240232,-1.129316 -0.62878,-1.517733 -0.388136,-0.388408 -0.925137,-0.62863 -1.517728,-0.62863 -0.567272,0 -1.085017,0.222756 -1.470267,0.58598 -0.0164,0.01363 -0.03214,0.02783 -0.04735,0.04264 -0.388136,0.388412 -0.62878,0.925423 -0.62878,1.517733 0,0.250553 0.04385,0.491872 0.12356,0.715869 l -3.589943,3.590074 c -0.13553,0.131121 -0.219593,0.31453 -0.219593,0.518025 v 9.015573 z m 22.009641,-5.729024 0.02811,0.02656 0.02244,0.02371 c 0.123011,0.110755 0.288668,0.178584 0.471243,0.178584 0.194138,0 0.370524,-0.07898 0.497513,-0.205969 l 0.0014,9.37e-4 9.37e-4,-9.37e-4 c 0.12548,-0.12534 0.203626,-0.301454 0.203626,-0.49779 0,-0.194414 -0.07897,-0.370528 -0.206241,-0.497794 -0.126993,-0.126994 -0.303379,-0.205969 -0.497518,-0.205969 -0.183404,0 -0.348644,0.06797 -0.471931,0.179413 l -0.02582,0.02657 c -0.126863,0.127266 -0.205842,0.30338 -0.205842,0.497795 0,0.184636 0.06894,0.351394 0.181891,0.474949 z m -6.579581,23.251931 c 0.302695,0.107728 0.573602,0.281912 0.796493,0.504396 0.388136,0.388132 0.628776,0.925278 0.628776,1.517452 0,0.590253 -0.241052,1.12671 -0.630289,1.516486 l 0.0014,0.0014 c -0.388277,0.388127 -0.925695,0.628775 -1.517461,0.628775 -0.589841,0 -1.125605,-0.240648 -1.515391,-0.628775 l -9.37e-4,-0.0014 -9.37e-4,-0.0014 -0.007,-0.0072 c -0.384421,-0.388553 -0.621762,-0.921847 -0.621762,-1.507828 0,-0.592174 0.240222,-1.129325 0.628771,-1.517456 0.01481,-0.01513 0.03027,-0.02919 0.04648,-0.04282 0.213676,-0.201424 0.468072,-0.359509 0.74944,-0.4605 V 9.0470836 c 0,-0.8954228 -0.121625,-1.7212223 -0.371625,-2.4976345 C 77.964334,5.7682289 77.582804,5.0263518 77.063963,4.3041565 L 76.817814,3.9614252 C 76.063834,3.1756632 75.153142,2.5391823 74.135954,2.1022015 73.147248,1.677334 72.055349,1.442054 70.908004,1.442054 c -0.887167,0 -1.738558,0.1397935 -2.533402,0.3983213 -0.552823,0.1796857 -1.078692,0.4157861 -1.570564,0.7005925 l 4.492655,4.4927973 c 0.140891,0.1408847 0.211333,0.3255293 0.211333,0.5100328 h 3.94e-4 v 4.2140391 c 0.302279,0.107874 0.573461,0.282057 0.795528,0.504677 0.388825,0.388404 0.629324,0.925278 0.629324,1.517593 0,0.590112 -0.240911,1.126701 -0.630284,1.516219 l 4.68e-4,0.0014 c -0.38814,0.388271 -0.924733,0.628775 -1.517325,0.628775 -0.589007,0 -1.1256,-0.240227 -1.514556,-0.628775 l -9.37e-4,-0.0014 -0.0014,-0.0014 -0.0066,-0.0067 c -0.384556,-0.38882 -0.62231,-0.922115 -0.62231,-1.50796 0,-0.592319 0.24064,-1.129189 0.628916,-1.517592 0.01513,-0.01504 0.03064,-0.02928 0.04676,-0.04264 0.213676,-0.201705 0.468353,-0.359926 0.749576,-0.460916 V 7.8422464 L 65.352953,3.1297242 c -0.04062,-5.622e-4 -0.117361,-0.00117 -0.242842,-0.00117 -1.142115,0 -2.227403,0.2321118 -3.210197,0.6513416 -0.803376,0.3425907 -1.541806,0.8112129 -2.189435,1.3800044 l 3.447539,3.447539 c 0.140202,0.1408903 0.211061,0.3255363 0.211061,0.510037 v 0 10.9382288 c 0.302551,0.107868 0.573462,0.281921 0.796353,0.504396 0.388277,0.388407 0.628785,0.925413 0.628785,1.517732 0,0.590254 -0.24092,1.126566 -0.630298,1.516079 l 0.0014,0.0014 c -0.388549,0.388276 -0.925549,0.628771 -1.517457,0.628771 -0.5897,0 -1.125609,-0.240364 -1.515254,-0.628771 l -0.0014,-0.0014 -9.37e-4,-9.37e-4 -0.0066,-0.0067 c -0.384552,-0.38882 -0.622164,-0.92211 -0.622164,-1.508104 0,-0.59231 0.240222,-1.129311 0.62877,-1.517724 0.01513,-0.0148 0.03064,-0.029 0.04676,-0.04254 0.2134,-0.201564 0.468081,-0.359931 0.749304,-0.460917 V 9.4162397 l -3.61223,-3.6125082 c -0.24793,-0.05393 -0.505492,-0.097272 -0.772004,-0.129196 -0.320298,-0.038527 -0.650238,-0.058613 -0.98678,-0.058613 -2.099445,0 -4.012473,0.7875585 -5.45893,2.0819801 -1.353864,1.212015 -2.301707,2.8687034 -2.614722,4.7403134 l 8.689913,5.017268 c 0.230318,0.133469 0.358825,0.374516 0.358825,0.622732 h 0.0019 v 7.976786 l 3.197674,3.197954 c 0.359106,-0.268985 0.803517,-0.428316 1.283282,-0.428316 0.592174,0 1.129189,0.240508 1.517456,0.62878 0.388137,0.388548 0.628776,0.925137 0.628776,1.517728 0,0.590117 -0.240639,1.126851 -0.629877,1.516083 l 9.38e-4,0.0014 c -0.388268,0.388412 -0.925278,0.628911 -1.517457,0.628911 -0.589419,0 -1.1256,-0.240222 -1.514968,-0.628911 l -9.37e-4,-0.0014 -0.0014,-9.37e-4 -0.0067,-0.007 c -0.384561,-0.38896 -0.622174,-0.92226 -0.622174,-1.507964 0,-0.16717 0.01926,-0.329795 0.05533,-0.486371 l -3.613602,-3.613608 c -0.134973,-0.130976 -0.219181,-0.31439 -0.219181,-0.517608 v -7.86106 l -8.639042,-4.987699 c -0.179413,-0.03191 -0.355527,-0.05666 -0.526692,-0.07306 -0.197435,-0.01893 -0.414135,-0.02891 -0.649685,-0.02891 -1.853031,0 -3.53064,0.751089 -4.744577,1.964894 -1.213937,1.214076 -1.964904,2.891815 -1.964904,4.744441 0,1.259889 0.344822,2.436544 0.944415,3.439002 0.53164,0.888821 1.263883,1.645275 2.1344,2.206222 l 4.590062,-4.590062 c -0.09975,-0.247382 -0.154783,-0.516784 -0.154783,-0.798288 0,-0.592451 0.240642,-1.129456 0.629049,-1.517592 0.01482,-0.01527 0.03044,-0.02942 0.04667,-0.04292 0.385384,-0.36323 0.903405,-0.58599 1.470813,-0.58599 0.592321,0 1.129329,0.240504 1.517736,0.628921 0.388411,0.388136 0.628774,0.925136 0.628774,1.517587 0,0.590113 -0.241052,1.12657 -0.630288,1.516084 l 0.0015,0.0014 c -0.388407,0.388272 -0.925409,0.628912 -1.51773,0.628912 -0.373826,0 -0.726325,-0.09686 -1.033285,-0.266638 l -4.861534,4.861352 c -0.220551,0.390464 -0.396251,0.815066 -0.518842,1.266078 -0.125892,0.463531 -0.19331,0.952241 -0.19331,1.457049 0,1.529568 0.620105,2.914525 1.62216,3.916444 1.002191,1.002462 2.387008,1.622289 3.916715,1.622289 0.204034,0 0.393638,-0.0092 0.568645,-0.02694 v 3.84e-4 l 0.0031,-3.84e-4 c 0.117502,-0.01214 0.234173,-0.02764 0.349195,-0.04676 l 2.454163,-2.454152 v -5.487555 c -0.30063,-0.108005 -0.570856,-0.281505 -0.793476,-0.503708 l -0.001,-9.37e-4 -10e-4,-0.0014 -0.0068,-0.007 c -0.384413,-0.388544 -0.622026,-0.921834 -0.622026,-1.507823 0,-0.592315 0.240365,-1.129316 0.628913,-1.517452 0.01482,-0.01513 0.03054,-0.02933 0.04678,-0.04282 0.385245,-0.363375 0.903398,-0.58599 1.47067,-0.58599 0.592324,0 1.129185,0.240368 1.517873,0.628775 0.388137,0.388136 0.628771,0.925142 0.628771,1.517457 0,0.590113 -0.240906,1.126715 -0.630284,1.516355 l 0.0014,9.37e-4 c -0.222897,0.222615 -0.493803,0.396659 -0.796499,0.504808 v 5.785013 0 c 0,0.184923 -0.07044,0.369011 -0.211333,0.510037 l -2.592155,2.591749 c 0.109378,1.107023 0.615292,2.099449 1.373131,2.833062 0.820848,0.794296 1.941495,1.28273 3.178136,1.28273 h 15.981917 c 1.262368,0 2.405725,-0.511687 3.232766,-1.33914 0.826901,-0.826625 1.339141,-1.969842 1.339141,-3.232757 V 30.762086 L 72.83645,28.198693 c -0.310801,0.174596 -0.669504,0.27421 -1.050753,0.27421 -0.589288,0 -1.125605,-0.240223 -1.514851,-0.628363 l -0.0014,-0.0014 -0.0014,-0.0014 -0.0066,-0.007 c -0.384556,-0.388548 -0.622169,-0.921833 -0.622169,-1.507963 0,-0.592175 0.24064,-1.129185 0.628771,-1.517316 0.01513,-0.01499 0.03097,-0.02914 0.04689,-0.04282 0.385241,-0.36337 0.903402,-0.586126 1.470951,-0.586126 0.59231,0 1.128903,0.240368 1.517451,0.628911 0.388689,0.388136 0.628916,0.925146 0.628916,1.517321 0,0.27531 -0.05282,0.5388 -0.148049,0.781365 l 2.735661,2.872142 c 0.132499,0.139513 0.198266,0.317829 0.198266,0.49614 h 0.0014 v 5.312538 c 0,1.660689 -0.673496,3.164793 -1.76167,4.252709 -1.088325,1.088315 -2.592573,1.761807 -4.252841,1.761807 h -15.98187 c -1.622575,0 -3.096828,-0.645427 -4.180884,-1.693847 -0.90271,-0.873402 -1.532725,-2.02859 -1.748328,-3.324668 -0.218897,0.01996 -0.431472,0.03069 -0.6362,0.03069 -1.927751,0 -3.673325,-0.781642 -4.936514,-2.04511 -1.26347,-1.263323 -2.044969,-3.0089 -2.044969,-4.936644 0,-0.634141 0.08489,-1.24916 0.243943,-1.834597 0.100027,-0.367081 0.230322,-0.723985 0.388411,-1.06754 -1.030533,-0.676523 -1.898876,-1.581022 -2.533294,-2.641553 -0.732008,-1.224117 -1.152985,-2.653519 -1.152985,-4.177576 0,-2.250802 0.912757,-4.289025 2.388001,-5.76438 1.475216,-1.474937 3.513441,-2.387827 5.764381,-2.387827 0.248749,0 0.510858,0.01363 0.785068,0.04006 l 0.03769,0.0042 c 0.401072,-2.119812 1.496686,-3.9938965 3.041381,-5.3769337 1.705126,-1.5257079 3.954003,-2.4540152 6.416958,-2.4540152 0.388136,0 0.774206,0.023806 1.155876,0.069759 0.246145,0.02955 0.492978,0.069617 0.740636,0.1195635 0.832125,-0.7973257 1.8079,-1.4471502 2.884802,-1.9066919 1.161241,-0.4955934 2.437369,-0.769806 3.773623,-0.769806 0.04142,0 0.149141,0.0029 0.2998,0.00744 l 0.0033,1.335e-4 v -1.335e-4 l 0.04428,0.00173 C 66.214633,1.1747245 67.046074,0.75934552 67.930763,0.47151426 68.871042,0.16538005 69.872956,-1.438317e-7 70.909129,-1.438317e-7 c 1.346575,0 2.630537,0.2775171338317 3.797147,0.7787477738317 1.047596,0.45004657 2.000118,1.08212427 2.817803,1.85647397 0.388267,-0.163455 0.790435,-0.2952668 1.203478,-0.3926789 0.572361,-0.1351101 1.167013,-0.2066568 1.775432,-0.2066568 1.30928,0 2.546338,0.3293876 3.632039,0.9094543 0.993935,0.5312256 1.857713,1.2729622 2.5312,2.1654919 l 0.05902,-0.00417 c 0.179413,-0.011118 0.345491,-0.017073 0.496417,-0.017073 1.694672,0 3.264415,0.5498041 4.541359,1.4809928 1.214493,0.8857956 2.160686,2.1172033 2.693282,3.5479821 1.389774,0.554341 2.58019,1.499432 3.433506,2.698647 0.899274,1.263192 1.428432,2.806647 1.428432,4.470916 0,0.28618 -0.01691,0.576076 -0.04939,0.867489 l -0.0078,0.06646 c 1.709806,0.27889 3.230706,1.118034 4.367316,2.323306 1.30378,1.382339 2.10316,3.245422 2.10316,5.293418 0,0.342454 -0.0248,0.690133 -0.0717,1.039611 -0.0373,0.274898 -0.0889,0.545814 -0.15465,0.811074 0.097,0.323335 0.17391,0.653955 0.22785,0.990225 0.0659,0.409875 0.1003,0.821396 0.1003,1.230587 0,1.970807 -0.74215,3.771548 -1.96296,5.138214 -1.09822,1.229617 -2.58431,2.106051 -4.266056,2.435166 -0.134697,1.912466 -0.966147,3.633281 -2.241849,4.908992 -1.396928,1.396788 -3.327287,2.261115 -5.45839,2.261115 h -2.646912 c -2.131098,0 -4.061452,-0.864327 -5.458657,-2.261115 -1.396516,-1.396787 -2.260702,-3.327286 -2.260702,-5.45838 v -3.556513 c 0,-0.203214 0.08407,-0.386613 0.219172,-0.518016 l 3.439423,-3.439007 c -0.134696,-0.280126 -0.210236,-0.593964 -0.210236,-0.924171 0,-0.592315 0.240644,-1.129189 0.628775,-1.517461 0.01542,-0.01513 0.03097,-0.02914 0.04689,-0.04278 0.385522,-0.363497 0.903266,-0.585986 1.470815,-0.585986 0.592451,0 1.129325,0.240228 1.517456,0.628776 0.388413,0.388277 0.628916,0.925151 0.628916,1.517461 0,0.590117 -0.240916,1.126565 -0.630289,1.515938 l 0.0014,0.0014 c -0.388136,0.388557 -0.924996,0.628925 -1.517452,0.628925 -0.326089,0 -0.635794,-0.07348 -0.913723,-0.204877 l -3.238684,3.238272 v 3.257935 c 0,1.73333 0.703075,3.302802 1.838322,4.438307 1.135917,1.135645 2.705384,1.838583 4.438573,1.838583 h 2.646917 c 1.733189,0 3.302792,-0.702938 4.438442,-1.838583 0.991864,-0.991593 1.65353,-2.313679 1.805286,-3.786962 H 88.51006 c -0.108552,0.301041 -0.282329,0.571948 -0.504944,0.794568 l 9.37e-4,0.0014 c -0.388408,0.388549 -0.925272,0.628771 -1.517587,0.628771 -0.589288,0 -1.125474,-0.240222 -1.514838,-0.628771 l -9.37e-4,-0.0014 -0.0014,-9.37e-4 -0.0067,-0.007 c -0.384425,-0.388549 -0.622038,-0.921834 -0.622038,-1.507824 0,-0.592179 0.240639,-1.129315 0.62878,-1.517456 0.01481,-0.01513 0.03027,-0.02914 0.04648,-0.04282 0.385245,-0.363496 0.903402,-0.585981 1.47095,-0.585981 0.59231,0 1.129185,0.240228 1.517592,0.628771 0.222485,0.222489 0.396528,0.493803 0.504818,0.79595 h 10.358836 c 1.556531,-0.185878 2.938191,-0.942064 3.929791,-2.052119 0.98939,-1.107585 1.59065,-2.572206 1.59065,-4.18019 0,-0.351952 -0.0263,-0.68781 -0.0776,-1.005082 -0.0258,-0.161665 -0.0579,-0.320298 -0.0956,-0.476879 h -3.72092 c -0.10815,0.300765 -0.28164,0.571268 -0.503708,0.793326 l -9.37e-4,0.0014 -0.0014,9.37e-4 -0.007,0.0072 c -0.388689,0.384561 -0.921838,0.622034 -1.507828,0.622034 -0.589424,0 -1.1256,-0.240227 -1.514978,-0.629188 l -0.0014,-9.37e-4 -9.37e-4,-0.0014 -0.0066,-0.0068 c -0.384556,-0.388689 -0.622164,-0.921984 -0.622164,-1.507964 0,-0.592179 0.240222,-1.129185 0.628771,-1.517461 0.01532,-0.01513 0.03069,-0.02919 0.04648,-0.04282 0.385658,-0.363089 0.903533,-0.585981 1.471087,-0.585981 0.590117,0 1.12657,0.240911 1.516355,0.630289 l 9.37e-4,-0.0014 c 0.222892,0.222616 0.396662,0.493803 0.504802,0.796358 h 3.68887 c 0.018,-0.09879 0.0343,-0.198542 0.0476,-0.298839 0.0362,-0.267201 0.0549,-0.550218 0.0549,-0.848098 0,-1.668382 -0.64968,-3.184194 -1.70883,-4.307456 -0.99793,-1.057912 -2.35895,-1.769659 -3.883419,-1.934215 l -3.086647,3.086788 v 6.686213 c 0.302284,0.107733 0.573471,0.281917 0.796086,0.504537 0.388548,0.388543 0.628776,0.925413 0.628776,1.517864 0,0.589976 -0.24064,1.126574 -0.629877,1.515811 l 9.37e-4,0.0014 c -0.388276,0.388272 -0.925277,0.628911 -1.517597,0.628911 -0.589288,0 -1.125469,-0.240232 -1.514842,-0.628911 l -0.0014,-0.0014 -9.37e-4,-4.68e-4 -0.0066,-0.0071 c -0.384561,-0.388956 -0.622178,-0.922251 -0.622178,-1.507828 0,-0.592451 0.240236,-1.129311 0.628785,-1.517859 0.01513,-0.01481 0.03069,-0.02914 0.04688,-0.04292 0.21354,-0.201429 0.46794,-0.359795 0.749168,-0.460509 v -6.987719 h 2.81e-4 c 0,-0.184501 0.07058,-0.369151 0.211052,-0.510042 l 3.384115,-3.383828 c 0.03069,-0.15988 0.05573,-0.324576 0.07499,-0.493526 0.02502,-0.225923 0.03837,-0.462983 0.03837,-0.709817 0,-1.357576 -0.429268,-2.613066 -1.158078,-3.636991 -0.551305,-0.773939 -1.272408,-1.417707 -2.109078,-1.875738 v 7.19804 c 0,0.20349 -0.08406,0.386894 -0.219588,0.518152 l -3.324944,3.324812 c 0.07333,0.215878 0.112952,0.447297 0.112952,0.68766 0,0.590254 -0.240907,1.126716 -0.630289,1.51622 l 0.0014,0.0014 c -0.388548,0.388272 -0.925422,0.628912 -1.51746,0.628912 -0.589289,0 -1.125605,-0.240223 -1.514978,-0.628912 l -0.0014,-0.0014 -0.0014,-9.37e-4 -0.0066,-0.0068 c -0.384561,-0.38897 -0.622305,-0.921979 -0.622305,-1.508104 0,-0.592315 0.240635,-1.129044 0.628911,-1.517452 0.01513,-0.01513 0.03055,-0.02933 0.04688,-0.04282 0.385245,-0.363375 0.903402,-0.58599 1.470955,-0.58599 0.414828,0 0.801858,0.118054 1.130412,0.321957 l 3.004646,-3.004918 V 10.781636 C 92.745143,9.5463727 91.950711,8.4840516 90.91853,7.7308999 89.884002,6.9767801 88.606918,6.5315514 87.222232,6.5315514 c -0.06206,0 -0.12094,5.154e-4 -0.177486,0.00155 v 7.0579076 c 0.302686,0.108009 0.573733,0.282048 0.796357,0.504532 0.388272,0.388408 0.628912,0.925282 0.628912,1.517733 0,0.589972 -0.241052,1.12657 -0.630013,1.516078 l 9.37e-4,9.37e-4 c -0.388276,0.388549 -0.925141,0.628912 -1.517461,0.628912 -0.589424,0 -1.125464,-0.240227 -1.514837,-0.628912 l -0.0014,-9.37e-4 -0.0014,-9.37e-4 -0.0066,-0.007 c -0.384557,-0.38882 -0.62217,-0.922105 -0.62217,-1.507818 0,-0.592456 0.24064,-1.129321 0.628781,-1.517733 0.01513,-0.01495 0.03106,-0.02914 0.04688,-0.04264 0.213671,-0.201424 0.468212,-0.359785 0.74944,-0.460917 V 6.0883589 C 85.042079,5.310574 84.308462,4.6659684 83.459545,4.2120734 c -0.87753,-0.468633 -1.883572,-0.73472 -2.955933,-0.73472 -0.501098,0 -0.985961,0.057945 -1.448527,0.1668889 -0.198814,0.046882 -0.39336,0.1030559 -0.583366,0.1675836 0.488297,0.7384368 0.858676,1.499025 1.11556,2.2974471 0.29897,0.9289913 0.444687,1.9002226 0.444687,2.9373608 v 43.1755922 0" style="fill:#fbc907;fill-opacity:1;fill-rule:evenodd;stroke:none;stroke-width:0.0137588" />
  <path id="path19" style="font-size:16.9608px;line-height:1.25;font-family:'Airstrip Four';-inkscape-font-specification:'Airstrip Four';letter-spacing:0px;word-spacing:0px;fill:#fbc907;stroke-width:0.471132" d="M 5.3996704 44.196785 L 1.2423014 44.205054 C 0.41413817 44.205041 0 44.613698 0 45.430819 L 0 53.687679 C -4.1675753e-17 54.526884 0.4086439 54.946517 1.225765 54.946517 C 2.0649704 54.946517 2.4846029 54.526884 2.4846029 53.687679 L 2.4846029 46.681388 L 5.383134 46.681388 C 6.2223394 46.681388 6.6419718 47.106516 6.6419718 47.956763 L 6.6419718 53.704215 C 6.6419718 54.543421 7.05611 54.963053 7.8842733 54.963053 C 8.7124365 54.963053 9.1265747 54.548916 9.1265747 53.720752 L 9.1265747 48.006372 C 9.1265747 45.466672 7.8841601 44.196785 5.3996704 44.196785 z M 31.282328 44.196785 C 28.797839 44.196785 27.555941 45.450189 27.555941 47.956763 L 27.555941 51.153467 C 27.555941 53.693168 28.797839 54.963053 31.282328 54.963053 L 35.439697 54.963053 C 36.267861 54.963053 36.681999 54.55441 36.681999 53.737288 C 36.681999 52.903604 36.276102 52.486719 35.464502 52.486719 L 31.307133 52.478451 C 30.462406 52.478451 30.040027 52.056071 30.040027 51.211344 L 30.040027 47.965031 C 30.040027 47.092699 30.443177 46.659331 31.249255 46.664852 L 35.406624 46.664852 C 36.24583 46.648292 36.668209 46.236901 36.67373 45.430819 C 36.67373 44.602656 36.240363 44.191264 35.373551 44.196785 L 31.282328 44.196785 z M 55.24314 44.653605 C 54.599014 44.653605 54.27679 44.975312 54.27679 45.619438 L 54.27679 51.996309 C 54.27679 53.971627 55.242945 54.959436 57.175321 54.959436 L 57.838847 54.959436 C 58.482972 54.959436 58.805196 54.641543 58.805196 54.006006 C 58.805196 53.357587 58.487303 53.033455 57.851766 53.033455 L 57.194958 53.027254 C 56.53795 53.027254 56.209489 52.698276 56.209489 52.041268 L 56.209489 48.498848 L 57.813009 48.50505 C 58.465723 48.49217 58.792277 48.172369 58.792277 47.545418 C 58.792277 46.901293 58.455154 46.581493 57.780969 46.585787 L 56.209489 46.579069 L 56.209489 45.619438 C 56.213756 44.971018 55.891532 44.649311 55.24314 44.653605 z M 69.562162 46.558398 C 69.330277 46.542295 69.091728 46.641347 68.84696 46.856055 C 68.374602 47.276883 68.355371 47.734234 68.789083 48.228064 L 70.761572 50.742122 L 68.782365 53.258765 C 68.352948 53.7483 68.374604 54.214313 68.84696 54.656612 C 69.336495 55.07744 69.79194 55.047643 70.212769 54.566695 L 71.988371 52.306368 L 73.761906 54.566695 C 74.187029 55.047642 74.64438 55.077439 75.133915 54.656612 C 75.606274 54.214313 75.627413 53.7483 75.197994 53.258765 L 73.217753 50.741089 L 75.191793 48.228064 C 75.625504 47.734234 75.603848 47.276883 75.127197 46.856055 C 74.641956 46.426638 74.180274 46.458859 73.742269 46.95269 L 71.990438 49.180461 L 70.23809 46.95269 C 70.019087 46.705775 69.794047 46.574502 69.562162 46.558398 z M 21.890137 46.572868 C 19.953467 46.572868 18.985404 47.543354 18.985404 49.484318 L 18.985404 52.047986 C 18.985404 53.980362 19.944805 54.946517 21.864299 54.946517 L 23.184631 54.946517 C 25.117007 54.946517 26.083679 53.958708 26.083679 51.98339 L 26.083679 49.478117 C 26.083679 47.541447 25.113193 46.572868 23.172229 46.572868 L 21.890137 46.572868 z M 41.059509 46.572868 C 39.122839 46.572868 38.15426 47.543354 38.15426 49.484318 L 38.15426 52.047986 C 38.15426 53.980362 39.114178 54.946517 41.033671 54.946517 L 42.354004 54.946517 C 44.286379 54.946517 45.252535 53.958708 45.252535 51.98339 L 45.252535 49.478117 C 45.252535 47.541447 44.282049 46.572868 42.341085 46.572868 L 41.059509 46.572868 z M 11.564669 46.585787 C 10.920543 46.585787 10.598836 46.908011 10.598836 47.552136 L 10.598836 51.996309 C 10.598836 53.971627 11.564991 54.959436 13.497367 54.959436 L 16.730762 54.959436 C 17.374887 54.959436 17.697111 54.641543 17.697111 54.006006 C 17.697111 53.357587 17.381125 53.033455 16.749882 53.033455 L 13.516488 53.027254 C 12.85948 53.027254 12.531018 52.698276 12.531018 52.041268 L 12.531018 51.719324 L 15.442468 51.713123 C 16.086594 51.713123 16.406394 51.39956 16.4021 50.772611 C 16.4021 50.115603 16.076062 49.782811 15.423348 49.774223 L 12.531018 49.787142 L 12.531018 48.498848 L 16.704924 48.50505 C 17.357637 48.49217 17.686098 48.172369 17.690393 47.545418 C 17.690393 46.901293 17.35327 46.581493 16.679085 46.585787 L 11.564669 46.585787 z M 49.43936 46.585787 C 47.506984 46.585787 46.540828 47.573596 46.540828 49.548914 L 46.540828 53.993087 C 46.540828 54.637212 46.863052 54.959436 47.507178 54.959436 C 48.151302 54.959436 48.473527 54.632882 48.473527 53.980168 L 48.473527 49.510156 C 48.473527 48.848854 48.801989 48.517969 49.458997 48.517969 L 51.049597 48.517969 L 51.049597 49.149455 C 51.049597 49.802169 51.378059 50.128723 52.035067 50.128723 C 52.666309 50.128723 52.982296 49.802169 52.982296 49.149455 L 52.982296 47.545418 C 52.982296 46.909881 52.660072 46.591988 52.015946 46.591988 L 49.43936 46.585787 z M 61.034001 46.585787 C 60.389875 46.585787 60.067651 46.908011 60.067651 47.552136 L 60.067651 51.996309 C 60.067651 53.971627 61.033806 54.959436 62.966182 54.959436 L 66.199577 54.959436 C 66.843702 54.959436 67.165926 54.641543 67.165926 54.006006 C 67.165926 53.357587 66.850457 53.033455 66.219214 53.033455 L 62.985303 53.027254 C 62.328295 53.027254 61.999833 52.698276 61.999833 52.041268 L 61.999833 51.719324 L 64.911283 51.713123 C 65.555409 51.713123 65.875209 51.39956 65.870915 50.772611 C 65.870915 50.115603 65.544876 49.782811 64.892163 49.774223 L 61.999833 49.787142 L 61.999833 48.498848 L 66.173739 48.50505 C 66.826453 48.49217 67.154914 48.172369 67.159208 47.545418 C 67.159208 46.901293 66.822085 46.581493 66.1479 46.585787 L 61.034001 46.585787 z M 21.871016 48.517969 L 23.172229 48.517969 C 23.824942 48.517969 24.150981 48.829624 24.150981 49.452279 L 24.150981 52.022148 C 24.150981 52.68345 23.824942 53.014335 23.172229 53.014335 L 21.871016 53.014335 C 21.23548 53.014335 20.917586 52.68345 20.917586 52.022148 L 20.917586 49.478117 C 20.917586 48.838286 21.23548 48.517969 21.871016 48.517969 z M 41.039872 48.517969 L 42.341085 48.517969 C 42.993799 48.517969 43.320353 48.829624 43.320353 49.452279 L 43.320353 52.022148 C 43.320353 52.68345 42.993799 53.014335 42.341085 53.014335 L 41.039872 53.014335 C 40.404335 53.014335 40.086959 52.68345 40.086959 52.022148 L 40.086959 49.478117 C 40.086959 48.838286 40.404335 48.517969 41.039872 48.517969 z " />
</svg>
